<svg width="21" height="29" fill="none" xmlns="http://www.w3.org/2000/svg"><path d="M19.5 28.5h-18a1 1 0 01-1-1 3 3 0 013-3h14a3 3 0 013 3 1 1 0 01-1 1zM3 24.5v-2m3.5 2v-2m3 0H0M12 10a2.5 2.5 0 110 5 2.5 2.5 0 010-5zm2 1c8.5 4 6.5 10.833 5 13.5" stroke="#fff"/><path d="M10.625 1.75L9.75 3.5a.559.559 0 00.25.75.559.559 0 01.25.75l-.497.995a.565.565 0 01-.758.252.565.565 0 00-.753.243l-4.266 8.107a1 1 0 00.437 1.36l2.211 1.105a1 1 0 001.332-.429l4.27-8.113a.576.576 0 00-.252-.783.576.576 0 01-.277-.729l.579-1.448a.555.555 0 01.764-.29c.26.13.575.038.725-.211l.815-1.36a.756.756 0 00-.31-1.064l-2.52-1.26a.839.839 0 00-1.125.375z" fill="#009BE3" stroke="#fff"/><path d="M13.5 14.5c6.5 4 2.5 8.5.5 10" stroke="#fff"/></svg>