<svg width="30" height="29" fill="none" xmlns="http://www.w3.org/2000/svg"><path d="M28.745 15.947l-.446.574a3 3 0 00-.632 1.842V25a3 3 0 01-3 3h-4a3 3 0 01-3-3v-7.667a3 3 0 013-3h7.289a1 1 0 01.789 1.614z" stroke="#fff"/><path d="M25.333 17.333v7a1 1 0 01-1 1H23m.5-10.666c-.805-2.95-3.803-4.606-5.523-5.14-.528-.164-.977-.641-.977-1.194V2a1 1 0 00-1-1h-2a1 1 0 00-1 1v6.333c0 .553-.464.997-.966 1.229a3.889 3.889 0 00-1.367 1.105m0 0V8.333a1 1 0 00-1-1h-1a1 1 0 00-1 1v6.06a1 1 0 01-.139.509L.889 26.159a1 1 0 00.862 1.508h15.126a1 1 0 00.852-1.524l-6.914-11.235a1 1 0 01-.148-.524v-3.717zM24 5a1.333 1.333 0 110 2.667A1.333 1.333 0 0124 5zM4 5.667a1.333 1.333 0 110 2.666 1.333 1.333 0 010-2.666zm3-4a1 1 0 110 2 1 1 0 010-2zM26.334 9a1.667 1.667 0 110 3.333 1.667 1.667 0 010-3.333z" stroke="#fff"/><path d="M9.333 17l-4.091 6.819a1 1 0 00.857 1.514h2.234" stroke="#fff"/></svg>