<svg width="84" height="52" viewBox="0 0 84 52" fill="none" xmlns="http://www.w3.org/2000/svg">
<path d="M65.0895 11.8941L65.4971 11.6046C66.8735 13.5426 67.5695 15.4515 67.5152 17.3205L65.0895 11.8941ZM65.0895 11.8941L65.4971 11.6046L65.37 11.4257C63.9658 9.44845 62.3995 8.14313 60.6559 7.59109C58.8815 7.02344 57.1684 7.33348 55.5613 8.47488C54.5814 9.1708 53.9348 10.0592 53.635 11.1256L53.4228 10.8823L53.1254 10.5413L52.7565 10.8033L49.2338 13.3052L48.8261 13.5947L49.1156 14.0024L61.0135 30.7551L61.3031 31.1627L61.7107 30.8732L65.4795 28.1966L65.8872 27.907L65.5976 27.4994L62.2376 22.7684L65.0895 11.8941ZM19.2296 28.7482L18.9377 28.5296L18.6403 28.7407L13.4848 32.4022L13.0772 32.6918L13.3667 33.0994L24.931 49.3824L25.2205 49.79L25.6282 49.5005L29.5536 46.7127L29.9612 46.4232L29.6717 46.0155L26.9712 42.2132L26.9642 42.2032L26.9566 42.1937L23.2385 37.4646L32.5389 44.1768L32.8292 44.3863L33.121 44.179L35.7156 42.3363L36.0076 42.1289L35.9052 41.7857L32.6326 30.8197L35.8606 35.8699L35.8672 35.8802L35.8743 35.8901L38.5747 39.6925L38.8642 40.1001L39.2719 39.8106L43.2084 37.0148L43.6161 36.7253L43.3266 36.3177L31.7622 20.0347L31.4727 19.6271L31.0651 19.9166L25.8983 23.586L25.6007 23.7974L25.7114 24.1452L29.6606 36.56L19.2296 28.7482ZM30.3105 38.296L31.5599 39.2316L31.0867 37.7442L26.775 24.19L31.2364 21.0214L42.2218 36.4891L39.1005 38.7058L36.6966 35.3211L31.5554 27.2777L30.655 27.6899L34.8445 41.7285L32.8339 43.1564L20.94 34.5725L20.2543 35.287L26.163 42.8022L28.5669 46.1869L25.4568 48.3957L14.4715 32.928L18.922 29.7672L30.3105 38.296ZM43.4072 17.4433L43.1491 17.6266L43.2044 17.9384L44.4815 25.128L40.7829 19.9204L40.4934 19.5127L40.0858 19.8022L36.2946 22.4947L35.887 22.7843L36.1765 23.1919L44.7703 35.2923L45.0598 35.7L45.4675 35.4104L49.2586 32.7179L49.5171 32.5343L49.4613 32.2222L48.1722 25.016L51.8829 30.2409L52.1724 30.6485L52.5801 30.359L56.3601 27.6744L56.7677 27.3849L56.4782 26.9772L47.8844 14.8768L47.5948 14.4692L47.1872 14.7587L43.4072 17.4433ZM47.6944 22.6163L46.7946 22.9939L48.4211 32.0862L45.2961 34.3056L37.2813 23.0205L40.2571 20.907L44.9556 27.5225L45.8555 27.1456L44.2444 18.0753L47.3586 15.8635L55.3734 27.1486L52.4087 29.2542L47.6944 22.6163ZM66.5156 17.2919L66.5156 17.2924C66.4719 18.8471 65.8102 20.0727 64.4951 21.0067C63.4979 21.715 62.4426 21.9251 61.2936 21.6546L60.0046 21.3512L60.7714 22.4308L64.4928 27.6708L61.5393 29.7684L50.2204 13.831L52.9666 11.8806L53.5753 12.5785L54.3754 13.4959L54.4511 12.281C54.5293 11.0276 55.082 10.0418 56.1403 9.29019C57.5152 8.31374 58.9041 8.08038 60.3519 8.54375L60.3534 8.54424C61.8214 9.00879 63.2269 10.1351 64.5547 12.0047L64.9624 11.7152L64.5547 12.0047L64.6818 12.1836C65.974 14.003 66.5619 15.7023 66.5156 17.2919ZM55.3896 14.7726L55.4096 14.8814L55.4737 14.9715L58.8572 19.7356L58.9242 19.83L59.0258 19.8853C59.5103 20.149 60.024 20.2604 60.555 20.2015C61.0806 20.1433 61.5903 19.922 62.0809 19.5736C62.8256 19.0447 63.1746 18.2923 63.1022 17.3801C63.0334 16.5134 62.5883 15.5327 61.8526 14.4564L61.8527 14.4563L61.8475 14.449L61.5615 14.0464C60.7804 12.9465 59.9891 12.1671 59.1748 11.7984C58.3169 11.4099 57.468 11.495 56.6981 12.0418C56.2043 12.3925 55.823 12.7961 55.592 13.2621C55.3575 13.7355 55.2924 14.245 55.3896 14.7726ZM57.2771 12.8571C57.7598 12.5143 58.2315 12.469 58.7623 12.7094C59.3368 12.9695 60.0024 13.5781 60.7462 14.6254L61.0295 15.0242C61.7268 16.0453 62.057 16.8509 62.1053 17.4593C62.1501 18.0229 61.9576 18.4347 61.5019 18.7583C61.1127 19.0347 60.7614 19.1725 60.4448 19.2076C60.1655 19.2386 59.8873 19.1927 59.6016 19.0568L56.3573 14.4887C56.3228 14.2047 56.3681 13.9482 56.4881 13.7061C56.6259 13.428 56.8763 13.1418 57.2771 12.8571ZM82.8581 17.6974C84.1292 24.19 80.8204 31.033 74.2468 36.8578C67.6832 42.6736 57.9348 47.4009 46.5535 49.6291C35.1722 51.8572 24.3609 51.155 16.0887 48.2435C7.80388 45.3277 2.15893 40.2375 0.887857 33.745C-0.383212 27.2524 2.92556 20.4094 9.4992 14.5846C16.0628 8.76876 25.8112 4.04147 37.1925 1.81333C48.5737 -0.414816 59.3851 0.287436 67.6573 3.19886C75.9421 6.11474 81.5871 11.2049 82.8581 17.6974Z" stroke="#009BE3"/>
</svg>
