<svg width="59" height="24" viewBox="0 0 59 24" fill="none" xmlns="http://www.w3.org/2000/svg">
<path d="M25.1758 12.0001C25.1758 10.5854 24.8823 9.23602 24.3708 7.98443C24.2355 12.1041 19.6523 15.2936 16.9615 17.4044H23.6968C24.6383 15.7927 25.1758 13.9541 25.1758 12.0001ZM20.3066 2.92902C18.1741 1.41216 15.5003 0.5 12.5881 0.5C5.63595 0.5 0 5.64903 0 12.0001C0 18.3511 5.63595 23.5 12.5881 23.5C15.7716 23.5 18.6704 22.4118 20.8871 20.631H11.7737L11.746 18.1859C17.2371 13.8248 20.6033 10.8754 20.6033 8.02652C20.6033 6.96776 20.1618 5.63169 18.1753 5.63169C16.6023 5.63169 15.0849 6.46415 15.3607 9.94258H12.1601C11.3598 5.90953 13.7604 2.70768 18.3404 2.70768C19.0505 2.70768 19.7073 2.78512 20.3066 2.92902Z" fill="#A3C626"/>
<path d="M36.8511 8.44823H39.8285C39.9303 6.37926 39.1672 3.10059 34.2558 3.10059C30.6418 3.10059 28.0205 5.07724 28.0205 9.19226C28.0205 9.7503 28.0458 12.6332 28.0458 14.4234C28.0458 18.8878 31.4309 19.864 34.2811 19.864C35.9862 19.864 38.4546 19.5151 39.5996 18.3759V11.2614H34.001V13.8423H36.4952V16.9811C34.6117 17.5622 31.1761 17.7948 31.1761 13.8423V9.19226C31.1761 6.42544 32.576 5.4723 34.128 5.4723C35.7315 5.4723 36.8511 6.21633 36.8511 8.44823ZM58.9984 15.3532C59.1254 8.98315 51.135 11.0985 51.2108 7.54146C51.2361 6.28626 52.127 5.4723 53.578 5.4723C55.1302 5.4723 56.0457 6.30933 56.0204 8.49504H58.9471C59.0236 6.51844 58.5147 3.1474 53.6798 3.1474C50.6766 3.1474 48.2083 4.49613 48.1571 7.49513C48.03 13.6094 56.0717 11.6102 55.9446 15.307C55.8934 16.8181 54.6971 17.4922 53.3486 17.4922C51.7711 17.4922 50.4984 16.6553 50.7531 14.1443H47.8004C47.4698 17.4692 49.0733 19.8409 53.3233 19.8409C56.9113 19.8409 58.9471 18.027 58.9984 15.3532ZM45.5541 19.6311H42.5516V3.35651H45.5541V19.6311ZM45.5541 19.6311H42.5516V3.35651H45.5541V19.6311Z" fill="#434242"/>
</svg>
